HIERARCHY
ROOT Hips
{
	OFFSET -3.958830 18.904000 13.208200
	CHANNELS 6 Xposition Yposition Zposition Zrotation Yrotation Xrotation 
	JOINT LHipJoint
	{
		OFFSET 0.000000 0.000000 0.000000
		CHANNELS 3 Zrotation Yrotation Xrotation
		JOINT LeftUpLeg
		{
			OFFSET 1.800000 -1.400000 0.085000
			CHANNELS 3 Zrotation Yrotation Xrotation
			JOINT LeftLeg
			{
				OFFSET 2.215000 -6.000000 0.000000
				CHANNELS 3 Zrotation Yrotation Xrotation
				JOINT LeftFoot
				{
					OFFSET 2.500000 -6.900000 0.000000
					CHANNELS 3 Zrotation Yrotation Xrotation
					JOINT LeftToeBase
					{
						OFFSET 0.200000 -0.500000 1.950000
						CHANNELS 3 Zrotation Yrotation Xrotation
						End Site
						{
							OFFSET 0.000000 0.000000 0.000000
						}
					}
				}
			}
		}
	}
	JOINT RHipJoint
	{
		OFFSET 0.000000 0.000000 0.000000
		CHANNELS 3 Zrotation Yrotation Xrotation
		JOINT RightUpLeg
		{
			OFFSET -1.800000 -1.400000 0.085000
			CHANNELS 3 Zrotation Yrotation Xrotation
			JOINT RightLeg
			{
				OFFSET -2.215000 -6.000000 0.000000
				CHANNELS 3 Zrotation Yrotation Xrotation
				JOINT RightFoot
				{
					OFFSET -2.500000 -6.900000 0.000000
					CHANNELS 3 Zrotation Yrotation Xrotation
					JOINT RightToeBase
					{
						OFFSET -0.200000 -0.500000 1.950000
						CHANNELS 3 Zrotation Yrotation Xrotation
						End Site
						{
							OFFSET 0.000000 0.000000 0.000000
						}
					}
				}
			}
		}
	}
	JOINT LowerBack
	{
		OFFSET 0.000000 0.000000 0.000000
		CHANNELS 3 Zrotation Yrotation Xrotation
		JOINT Spine
		{
			OFFSET -0.087000 1.940000 -0.288900
			CHANNELS 3 Zrotation Yrotation Xrotation
			JOINT Spine1
			{
				OFFSET 0.000000 1.950000 0.060000
				CHANNELS 3 Zrotation Yrotation Xrotation
				JOINT Neck
				{
					OFFSET 0.000000 0.000000 0.000000
					CHANNELS 3 Zrotation Yrotation Xrotation
					JOINT Neck1
					{
						OFFSET 0.000000 1.600000 0.340000
						CHANNELS 3 Zrotation Yrotation Xrotation
						JOINT Head
						{
							OFFSET 0.000000 1.667000 -0.240000
							CHANNELS 3 Zrotation Yrotation Xrotation
							End Site
							{
								OFFSET 0.000000 0.000000 0.000000
							}
						}
					}
				}
				JOINT LeftShoulder
				{
					OFFSET 0.000000 0.000000 0.000000
					CHANNELS 3 Zrotation Yrotation Xrotation
					JOINT LeftArm
					{
						OFFSET 2.700000 1.550000 -0.730000
						CHANNELS 3 Zrotation Yrotation Xrotation
						JOINT LeftForeArm
						{
							OFFSET 5.450000 0.000000 0.000000
							CHANNELS 3 Zrotation Yrotation Xrotation
							JOINT LeftHand
							{
								OFFSET 3.450000 0.000000 0.000000
								CHANNELS 3 Zrotation Yrotation Xrotation
								JOINT LeftHandIndex1
								{
									OFFSET 0.750000 0.000000 0.000000
									CHANNELS 3 Zrotation Yrotation Xrotation
									End Site
									{
										OFFSET 0.000000 0.000000 0.000000
									}
								}
							}
						}
					}
				}
				JOINT RightShoulder
				{
					OFFSET 0.000000 0.000000 0.000000
					CHANNELS 3 Zrotation Yrotation Xrotation
					JOINT RightArm
					{
						OFFSET -2.700000 1.550000 -0.730000
						CHANNELS 3 Zrotation Yrotation Xrotation
						JOINT RightForeArm
						{
							OFFSET -5.450000 0.000000 0.000000
							CHANNELS 3 Zrotation Yrotation Xrotation
							JOINT RightHand
							{
								OFFSET -3.450000 0.000000 0.000000
								CHANNELS 3 Zrotation Yrotation Xrotation
								JOINT RightHandIndex1
								{
									OFFSET -0.750000 0.000000 0.000000
									CHANNELS 3 Zrotation Yrotation Xrotation
									End Site
									{
										OFFSET 0.000000 0.000000 0.000000
									}
								}
							}
						}
					}
				}
			}
		}
	}
}
MOTION
Frames: 14
Frame Time: 0.016667
-0.859970 17.326150 -3.851020 1.388301 -23.902882 5.400414 -14.929882 12.264797 4.694289 3.574249 -6.614716 -37.540885 -13.297102 7.910904 22.291142 -0.894677 5.200897 2.951474 0.228570 -0.191030 -0.029280 18.546953 -10.860195 2.204421 -4.605654 2.667832 -15.658110 2.934942 -6.400673 27.535666 -0.254485 -4.399260 3.290874 0.055160 0.644820 0.095440 -4.263480 -1.245262 -7.569052 16.596598 0.054145 17.838898 -2.988142 2.801457 8.630912 0.154221 -10.357437 -9.544160 -22.097998 11.896536 31.030755 -7.588630 6.744830 -10.127720 -16.200363 1.830732 3.162557 -36.740327 16.235241 -13.259217 -40.248242 -54.085967 13.903187 -3.787840 2.949052 0.812560 0.362480 -0.299840 0.307800 15.163337 6.279812 5.688879 48.844363 -1.971272 -12.176074 75.311233 53.561229 29.569564 1.676146 -1.647875 -0.589570 0.602980 0.225910 -0.341040 
-0.793070 17.262550 -3.860800 1.312830 -23.014098 6.375791 -14.941622 12.230900 4.648440 3.795097 -6.321709 -38.063578 -12.366387 6.589051 17.718117 -1.064387 4.513797 3.244383 0.162690 -0.255380 -0.102810 18.548427 -10.870493 2.156642 -4.844264 2.137944 -14.480320 3.298111 -6.134788 24.298375 -0.149385 -4.174526 3.400646 0.065670 0.747000 0.066110 -4.255189 -1.227048 -7.461586 16.113545 0.722141 15.867697 -2.455949 3.129138 8.739547 -0.279049 -10.564033 -9.263014 -21.988981 11.688308 28.907522 -6.875280 6.508680 -8.322820 -15.302623 2.900429 2.958914 -36.597309 15.724463 -12.657041 -39.486931 -57.559568 15.052215 -3.863990 2.967736 0.768350 0.431970 -0.389450 0.310980 15.133146 5.378781 5.678544 47.647951 -3.346272 -11.786153 75.313993 51.961036 28.650032 1.615274 -1.673037 -0.658760 0.651450 0.275310 -0.333840 
-0.721290 17.214840 -3.865490 0.906857 -21.674548 7.222488 -14.927580 12.117251 4.625147 4.059095 -6.282951 -39.037064 -10.887149 5.992640 16.653894 -1.120796 4.240337 3.370746 0.148400 -0.262240 -0.135680 18.589192 -10.879874 2.150946 -4.796939 1.791352 -13.630888 3.810391 -5.982565 21.749538 -0.098600 -4.050268 3.461711 0.084060 0.809060 0.066100 -4.355921 -1.040709 -7.384566 16.533441 0.892064 14.409503 -3.001366 3.209347 8.495612 -0.588116 -10.639939 -8.828041 -21.531815 11.142562 27.230067 -6.323010 5.946440 -7.139310 -14.648060 4.078320 2.624910 -36.204387 15.101044 -11.952624 -38.842204 -61.371102 16.405118 -3.913019 3.029128 0.713980 0.480680 -0.439620 0.327720 15.001216 4.145343 5.424421 47.574395 -4.233191 -11.475554 73.486750 50.313572 26.818028 1.574608 -1.716909 -0.673390 0.664930 0.283070 -0.313840 
-0.653890 17.186360 -3.852380 0.224760 -21.024509 8.378374 -14.929966 11.921280 4.637087 5.431104 -6.212129 -40.220596 -10.813690 6.483500 18.477572 -1.164139 4.709784 3.244399 0.063120 -0.375470 -0.200770 18.632685 -10.817725 2.154776 -5.207524 1.945833 -13.789507 5.314184 -6.216202 20.278812 -0.025208 -4.113296 3.459403 0.086490 0.973980 0.088040 -4.463671 -0.798459 -7.307675 17.007699 1.350314 12.492224 -3.208524 3.439144 7.917647 -1.007238 -10.442948 -7.810856 -20.367545 11.175534 25.488329 -6.809420 6.288590 -4.786250 -14.628131 5.818322 1.940860 -36.350492 13.993386 -10.863089 -36.159709 -64.018044 16.156370 -4.095379 3.012452 0.658520 0.618960 -0.554320 0.326860 15.605777 2.153574 4.578786 46.461210 -4.395862 -10.508092 69.200558 48.405668 24.132583 1.475940 -1.716184 -0.760230 0.726670 0.366070 -0.318240 
-0.593540 17.198150 -3.839420 -0.613568 -20.717577 8.562777 -14.939581 11.850903 4.645396 7.439829 -5.905440 -40.336282 -11.706401 7.877947 22.384035 -1.048485 5.591140 2.934201 -0.009700 -0.458530 -0.260030 18.640044 -10.735514 2.179263 -6.104438 2.501512 -14.854229 7.503261 -7.089253 22.061229 -0.004614 -4.441509 3.347864 0.065120 1.065160 0.067230 -4.486753 -0.743889 -7.324175 17.044579 1.584528 11.990640 -2.668559 3.594447 6.876099 -1.487086 -10.654922 -7.262179 -20.616402 11.240366 24.887904 -6.201500 5.857300 -2.485750 -14.883303 6.894089 1.768614 -38.330178 13.224290 -10.808438 -31.059802 -66.260367 13.889408 -4.173965 2.996383 0.595180 0.680770 -0.642860 0.312740 16.684612 1.390671 3.919179 44.719306 -3.818398 -9.805105 62.236252 46.287009 20.349675 1.452572 -1.683875 -0.798510 0.754470 0.417460 -0.305370 
-0.528010 17.223860 -3.834890 -1.153161 -20.235202 8.635197 -14.960364 11.731326 4.615986 9.171476 -5.675451 -39.783953 -13.036632 9.806923 26.990280 -0.905563 6.737086 2.531225 -0.025570 -0.480790 -0.306080 18.653183 -10.555142 2.272957 -7.892867 3.777026 -18.260431 10.288410 -8.919747 27.298583 -0.094992 -5.217568 3.057904 0.080470 1.147120 0.062390 -4.520181 -0.695344 -7.361956 16.852439 1.578800 11.377536 -2.457667 3.510070 6.412494 -1.955779 -10.846401 -6.737389 -20.915496 11.577813 24.472088 -5.067170 5.095180 -1.658010 -14.519774 7.841931 1.623064 -41.312597 11.806033 -11.059618 -25.222324 -66.695503 10.399969 -4.216569 2.952463 0.572570 0.724980 -0.697680 0.333350 17.131162 0.656342 3.151276 44.243818 -2.513353 -9.232978 55.579575 43.913668 16.870846 1.410760 -1.638099 -0.831730 0.801960 0.447280 -0.290180 
-0.454850 17.258530 -3.826090 -0.988480 -19.094939 8.155680 -15.031361 11.692110 4.457023 9.725790 -5.581907 -37.912044 -14.222883 11.795537 31.137940 -0.646506 7.676463 2.193069 0.008800 -0.396630 -0.314920 18.616878 -10.201754 2.551947 -11.081989 5.137888 -22.572185 14.072090 -11.675333 33.064070 -0.319265 -6.376241 2.623619 0.108060 1.123620 0.033400 -4.389789 -0.957297 -7.498907 15.138360 1.477484 11.206927 -1.481009 3.190055 6.303940 -2.162470 -10.689143 -6.543180 -20.687466 11.470690 24.703798 -4.028220 4.477080 -1.613000 -13.841362 8.260077 1.711524 -45.127370 10.179709 -11.860202 -19.714984 -65.824363 6.878852 -4.149901 2.930557 0.528360 0.699160 -0.682220 0.359100 16.955985 0.320020 2.658517 44.799343 -1.466709 -9.262128 49.198392 42.197531 13.883654 1.442291 -1.608537 -0.790270 0.799020 0.399480 -0.252120 
-0.366340 17.301420 -3.821690 -0.806036 -17.440640 7.423960 -15.092851 11.717953 4.245206 9.583214 -5.550520 -35.614305 -14.552788 13.216588 34.446478 -0.430558 8.337556 1.949055 0.064650 -0.310540 -0.322100 18.582822 -9.866440 2.877911 -14.113716 5.858983 -26.198973 17.057595 -13.943431 36.373590 -0.531748 -7.268625 2.310620 0.118880 1.079420 0.049560 -4.253096 -1.288194 -7.649240 13.735463 1.046447 11.464335 -0.767390 2.582516 6.273066 -2.081820 -10.461660 -6.553269 -20.534757 11.458916 25.684717 -3.213390 4.016060 -2.017110 -13.841011 7.940899 1.837811 -48.300543 8.910180 -12.805095 -15.206490 -64.362516 3.881952 -4.081222 2.919229 0.521100 0.667670 -0.641610 0.390130 16.941957 0.506381 2.389200 45.439562 -0.557747 -9.591117 42.825708 40.895783 11.267476 1.451674 -1.574587 -0.721870 0.759320 0.357720 -0.223570 
-0.279140 17.338630 -3.815640 -0.516896 -15.037294 6.500556 -15.126901 11.877428 4.000997 8.595788 -5.682635 -33.059727 -13.140910 13.628537 37.427459 -0.227286 8.584122 1.857936 0.117500 -0.202470 -0.338980 18.542592 -9.715160 3.098896 -16.574055 5.559945 -28.088060 19.199621 -15.097743 36.686481 -0.618720 -7.607773 2.190994 0.134330 1.011120 0.027780 -4.112602 -1.599353 -7.729645 12.269650 0.381465 11.713960 -0.452464 1.727027 6.023592 -1.990990 -10.156820 -6.716602 -20.247479 10.941031 26.903873 -1.436150 2.808290 -1.686060 -14.250653 7.068060 1.973108 -50.035449 7.601061 -13.221260 -12.937053 -61.694255 2.367919 -3.980282 2.936788 0.475620 0.607920 -0.602230 0.424860 17.377619 1.117295 2.441659 45.837604 -0.342879 -10.135242 37.535950 40.992596 9.502358 1.505040 -1.576379 -0.637940 0.705260 0.285780 -0.171520 
-0.196310 17.347530 -3.794620 -0.957491 -11.887919 5.696518 -15.129554 12.117554 3.702817 8.447018 -5.432779 -30.019777 -11.320754 13.371422 39.074677 -0.158110 8.655335 1.847236 0.115570 -0.195550 -0.360500 18.518141 -9.675282 3.229779 -18.105176 4.917325 -28.712024 20.940470 -15.632783 35.411349 -0.637620 -7.653927 2.183033 0.114540 1.002110 0.027350 -4.041149 -1.881307 -7.713589 11.998523 -0.611771 11.477814 -0.320860 0.575642 6.207515 -1.725749 -9.746825 -7.014221 -19.783285 10.341251 28.198147 -0.887960 2.096360 -1.265440 -14.458602 5.856062 2.169770 -51.147528 6.347392 -13.195575 -12.155906 -58.597445 1.674299 -3.958923 2.890936 0.474880 0.592860 -0.586180 0.441800 17.269963 1.701127 2.706231 46.314908 -0.446187 -10.807255 34.027857 41.859706 8.550660 1.506379 -1.549459 -0.614080 0.694090 0.271690 -0.151750 
-0.117270 17.339300 -3.784470 -1.657771 -9.679053 4.952973 -15.110942 12.486612 3.321665 8.494426 -4.658475 -26.610261 -8.627110 12.344327 39.319410 -0.200890 8.343736 1.930726 0.136830 -0.182590 -0.325110 18.492326 -9.722672 3.367202 -18.947771 4.600002 -29.496499 21.366009 -15.261333 33.923360 -0.609416 -7.430015 2.229282 0.094700 0.933410 0.048040 -3.999222 -2.149838 -7.652057 12.121571 -1.394082 11.625633 -0.364627 -0.298573 6.168976 -1.358388 -9.544383 -7.481766 -19.793305 10.802464 29.332727 -1.244560 2.971010 -1.546860 -14.386074 4.736751 2.423749 -51.182497 5.428617 -12.560659 -13.396425 -54.460454 1.989569 -3.931113 2.882790 0.509320 0.554230 -0.538190 0.426970 16.645208 2.364217 3.042901 47.382465 -0.061989 -11.477167 30.858331 43.973044 8.055816 1.510242 -1.543726 -0.580080 0.638180 0.251920 -0.167950 
-0.042360 17.313080 -3.786930 -2.871592 -8.364678 4.429402 -15.048962 12.931149 2.893550 9.368952 -3.340283 -22.679709 -6.322189 10.859620 36.647247 -0.398674 7.677085 2.163343 0.115670 -0.240890 -0.288710 18.481044 -9.934340 3.429182 -18.528049 4.545664 -30.060782 19.919507 -13.463110 31.091506 -0.456910 -6.688398 2.455410 0.064320 0.917130 0.069900 -4.042131 -2.227040 -7.494348 13.083925 -1.841593 11.644278 -0.803750 -0.766015 6.306312 -0.836815 -9.123536 -7.741442 -19.173376 11.024829 30.511685 -2.644660 4.250470 -2.047340 -14.504677 3.688078 2.397607 -49.868971 4.343845 -11.166311 -15.415947 -49.630834 2.546891 -3.972164 2.801663 0.576310 0.550610 -0.511020 0.400570 15.786381 2.791668 3.343161 48.039668 0.647011 -11.769581 30.165610 47.137752 8.649205 1.478940 -1.522319 -0.609630 0.639930 0.274610 -0.210000 
0.039550 17.255700 -3.771080 -3.902828 -7.477713 4.409440 -14.987078 13.255643 2.506433 10.004544 -2.139537 -18.754844 -4.713153 9.498502 32.777150 -0.518945 6.904614 2.464092 0.133300 -0.225810 -0.227530 18.484808 -10.170937 3.439092 -18.003649 4.297054 -30.315797 18.241779 -10.951218 25.931114 -0.249548 -5.626798 2.798787 0.066370 0.897940 0.104830 -4.123696 -2.089231 -7.248526 13.918409 -1.916948 10.416957 -1.019301 -1.117098 7.084179 -0.540026 -8.360598 -7.552587 -17.452262 10.644503 31.005955 -4.520200 5.574250 -1.794850 -14.314513 3.283737 2.347351 -48.092872 3.415802 -9.461546 -18.904245 -45.342062 3.704740 -4.016374 2.808397 0.554590 0.572380 -0.483940 0.400270 15.025219 2.430859 3.181968 48.524303 1.867573 -11.708179 28.869077 51.732197 9.315959 1.465594 -1.586827 -0.588180 0.610530 0.239530 -0.217460 
0.117800 17.176980 -3.749890 -4.314184 -6.782909 5.009365 -14.973001 13.391898 2.284960 10.438666 -1.299960 -15.451433 -4.895483 8.608230 27.533314 -0.666276 6.239304 2.754291 0.104330 -0.263340 -0.245800 18.473845 -10.301413 3.401784 -17.624521 3.905319 -30.506803 15.876860 -8.265125 19.495553 -0.004519 -4.532343 3.199679 0.074760 0.958660 0.114140 -4.131169 -1.923456 -7.018476 13.627789 -1.683560 8.307740 -0.804689 -1.336889 8.047372 -0.498298 -7.392224 -7.385799 -15.078926 10.619273 30.511718 -5.058140 6.665310 -0.174670 -13.684058 2.787438 2.612607 -46.484397 3.302028 -8.048496 -22.546647 -41.616827 4.647405 -4.103769 2.826221 0.512980 0.647930 -0.544920 0.399500 14.455421 2.150115 2.955736 48.661249 3.242376 -11.266532 27.462423 56.333327 9.853440 1.399721 -1.665231 -0.622060 0.605000 0.256030 -0.228210 
